Current stm setup:
        Processing stm:
                Ultrasonic sensor:
                        TRIGGER: PA5
                        ECHO:    PA6
                
                SPI1_MOSI: PA7
                SP1_SCK:   PA1
        
        Recording stm:


TODO:
        Add options for different save files -> .png, .csv

Last Test Results - std recording

Params: 5x300s tests in std mode

Results:
---START---
---TEST 0---
        sample rate: 9208
        total samples: 2762657
        elapsed: 300.00

---TEST 1---
        sample rate: 9211
        total samples: 2763418
        elapsed: 300.00

---TEST 2---
        sample rate: 9211
        total samples: 2763360
        elapsed: 300.00

---TEST 3---
        sample rate: 9211
        total samples: 2763400
        elapsed: 300.00

---TEST 4---
        sample rate: 9211
        total samples: 2763415
        elapsed: 300.00

---END TESTS---

---RESULTS---
Mean sample rate: 9210.4
Median sample rate: 9211.0
Sample rate max: 9211.0
Sample rate min: 9208.0
Sample rate range: 3.0
---END---

Last test results - us recording

---START---
        total samples: 9556990
        elapsed: 1045.58
        sample rate: 9140
---END---